<?xml version="1.0" encoding="utf-8"?>
<svg width="262.80911" height="301.3544" viewBox="0 0 262.80911 301.3544" xmlns="http://www.w3.org/2000/svg" fill="#12141d">
  <defs>
    <linearGradient gradientUnits="userSpaceOnUse" x1="193.645" y1="139.071" x2="193.645" y2="301.354" id="gradient-0">
      <stop offset="0" style="stop-color: rgb(0.39216% 47.059% 83.922%)"/>
      <stop offset="1" style="stop-color: rgb(0% 29.909% 51.656%)"/>
    </linearGradient>
    <linearGradient gradientUnits="userSpaceOnUse" x1="159.427" y1="0" x2="159.427" y2="126.644" id="gradient-1">
      <stop offset="0" style="stop-color: rgb(0.39216% 47.059% 83.922%)"/>
      <stop offset="1" style="stop-color: rgb(0% 29.909% 51.656%)"/>
    </linearGradient>
    <linearGradient gradientUnits="userSpaceOnUse" x1="39.9" y1="74.246" x2="39.9" y2="265.354" id="gradient-2">
      <stop offset="0" style="stop-color: rgb(0.39216% 47.059% 83.922%)"/>
      <stop offset="1" style="stop-color: rgb(0% 29.909% 51.656%)"/>
    </linearGradient>
  </defs>
  <path d="m188.33007 126.64441a6 6 0 0 1 -3-.81l-126.280003-72.91a6 6 0 0 1 -.13-10.32l68.480003-41.73000017a6 6 0 0 1 6.12-.07l126.29 72.91000017a6 6 0 0 1 .12 10.32l-68.48 41.75a6 6 0 0 1 -3.12.86zm-114.530003-79.05 114.450003 66.07 56.78-34.62-114.44-66.07z" style="fill: url(&quot;#gradient-1&quot;);"/>
  <path d="m130.50007 301.35441a6 6 0 0 1 -6-6v-77.37a6 6 0 0 1 3-5.2l126.29-72.91a6 6 0 0 1 9 5.2v77.37a6 6 0 0 1 -3 5.19l-126.29 72.91a5.93 5.93 0 0 1 -3 .81zm6-79.91v63.51l114.29-66v-63.49z" style="fill: url(&quot;#gradient-0&quot;);"/>
  <path d="m73.000067 265.32441a6 6 0 0 1 -2.92-.77l-66.9999996-37.42a6 6 0 0 1 -3.08000002-5.27l.8-141.66a6 6 0 0 1 8.92000002-5.2l66.9999996 37.42a6 6 0 0 1 3.08 5.27l-.8 141.66a6 6 0 0 1 -6 6zm-61-46.94 55 30.74.72-127.95-55-30.74z" style="fill: url(&quot;#gradient-2&quot;);"/>
</svg>